<svg width="24" height="24" viewBox="0 0 24 24" fill="none" xmlns="http://www.w3.org/2000/svg">
<g id="Icon / CloudArrowUp">
<path id="Vector" d="M23.2499 12C23.2546 13.7861 22.6752 15.5248 21.5999 16.9509C21.5407 17.0297 21.4665 17.0961 21.3817 17.1462C21.2968 17.1964 21.2029 17.2293 21.1053 17.2431C21.0077 17.257 20.9084 17.2514 20.8129 17.2269C20.7175 17.2023 20.6278 17.1592 20.549 17.1C20.4702 17.0408 20.4038 16.9666 20.3537 16.8818C20.3036 16.7969 20.2706 16.703 20.2568 16.6054C20.2429 16.5078 20.2485 16.4085 20.273 16.313C20.2976 16.2175 20.3407 16.1279 20.3999 16.0491C21.2801 14.883 21.7542 13.4609 21.7499 12C21.7499 10.2098 21.0388 8.4929 19.7729 7.22703C18.507 5.96115 16.7901 5.25 14.9999 5.25C13.2097 5.25 11.4928 5.96115 10.2269 7.22703C8.96107 8.4929 8.24991 10.2098 8.24991 12C8.24991 12.1989 8.1709 12.3897 8.03024 12.5303C7.88959 12.671 7.69883 12.75 7.49991 12.75C7.301 12.75 7.11024 12.671 6.96958 12.5303C6.82893 12.3897 6.74991 12.1989 6.74991 12C6.74955 11.2431 6.85333 10.4898 7.05835 9.76125C6.95616 9.75 6.85304 9.75 6.74991 9.75C5.55644 9.75 4.41185 10.2241 3.56793 11.068C2.72402 11.9119 2.24991 13.0565 2.24991 14.25C2.24991 15.4435 2.72402 16.5881 3.56793 17.432C4.41185 18.2759 5.55644 18.75 6.74991 18.75H8.99991C9.19883 18.75 9.38959 18.829 9.53024 18.9697C9.6709 19.1103 9.74991 19.3011 9.74991 19.5C9.74991 19.6989 9.6709 19.8897 9.53024 20.0303C9.38959 20.171 9.19883 20.25 8.99991 20.25H6.74991C5.92508 20.2502 5.10906 20.0803 4.35283 19.751C3.5966 19.4216 2.91639 18.9399 2.3547 18.3359C1.79301 17.7318 1.36189 17.0185 1.08827 16.2403C0.814657 15.4622 0.704419 14.636 0.764444 13.8134C0.824469 12.9907 1.05347 12.1893 1.43714 11.4591C1.82081 10.7289 2.35091 10.0857 2.99434 9.56961C3.63776 9.05351 4.38069 8.67562 5.17672 8.45954C5.97275 8.24346 6.80478 8.19383 7.62085 8.31375C8.45185 6.65171 9.81961 5.31888 11.5026 4.53115C13.1856 3.74342 15.0852 3.54693 16.8938 3.9735C18.7024 4.40007 20.314 5.42472 21.4676 6.88148C22.6212 8.33824 23.2492 10.1418 23.2499 12ZM14.7805 11.4694C14.7109 11.3996 14.6282 11.3443 14.5371 11.3066C14.4461 11.2688 14.3485 11.2494 14.2499 11.2494C14.1514 11.2494 14.0538 11.2688 13.9627 11.3066C13.8717 11.3443 13.7889 11.3996 13.7193 11.4694L10.7193 14.4694C10.6496 14.5391 10.5943 14.6218 10.5566 14.7128C10.5189 14.8039 10.4995 14.9015 10.4995 15C10.4995 15.0985 10.5189 15.1961 10.5566 15.2872C10.5943 15.3782 10.6496 15.4609 10.7193 15.5306C10.86 15.6714 11.0509 15.7504 11.2499 15.7504C11.3485 15.7504 11.446 15.731 11.5371 15.6933C11.6281 15.6556 11.7109 15.6003 11.7805 15.5306L13.4999 13.8103V19.5C13.4999 19.6989 13.5789 19.8897 13.7196 20.0303C13.8602 20.171 14.051 20.25 14.2499 20.25C14.4488 20.25 14.6396 20.171 14.7802 20.0303C14.9209 19.8897 14.9999 19.6989 14.9999 19.5V13.8103L16.7193 15.5306C16.789 15.6003 16.8717 15.6556 16.9627 15.6933C17.0538 15.731 17.1514 15.7504 17.2499 15.7504C17.3485 15.7504 17.446 15.731 17.5371 15.6933C17.6281 15.6556 17.7109 15.6003 17.7805 15.5306C17.8502 15.4609 17.9055 15.3782 17.9432 15.2872C17.9809 15.1961 18.0003 15.0985 18.0003 15C18.0003 14.9015 17.9809 14.8039 17.9432 14.7128C17.9055 14.6218 17.8502 14.5391 17.7805 14.4694L14.7805 11.4694Z" fill="#455468"/>
</g>
</svg>
