<svg width="18" height="28" viewBox="0 0 18 28" fill="none" xmlns="http://www.w3.org/2000/svg">
<g id="figma">
<path id="vector" fill-rule="evenodd" clip-rule="evenodd" d="M0 23C0 20.5147 2.01472 18.5 4.5 18.5H9V23C9 25.4853 6.98528 27.5 4.5 27.5C2.01472 27.5 0 25.4853 0 23Z" fill="#0ACF83"/>
<path id="vector_2" fill-rule="evenodd" clip-rule="evenodd" d="M9 14C9 11.5147 11.0147 9.5 13.5 9.5C15.9853 9.5 18 11.5147 18 14C18 16.4853 15.9853 18.5 13.5 18.5C11.0147 18.5 9 16.4853 9 14Z" fill="#1ABCFE"/>
<path id="vector_3" fill-rule="evenodd" clip-rule="evenodd" d="M0 14C0 16.4853 2.01472 18.5 4.5 18.5H9V9.5H4.5C2.01472 9.5 0 11.5147 0 14Z" fill="#A259FF"/>
<path id="vector_4" fill-rule="evenodd" clip-rule="evenodd" d="M9 0.5V9.5H13.5C15.9853 9.5 18 7.48528 18 5C18 2.51472 15.9853 0.5 13.5 0.5H9Z" fill="#FF7262"/>
<path id="vector_5" fill-rule="evenodd" clip-rule="evenodd" d="M0 5C0 7.48528 2.01472 9.5 4.5 9.5H9V0.5H4.5C2.01472 0.5 0 2.51472 0 5Z" fill="#F24E1E"/>
</g>
</svg>
