<svg width="29" height="28" viewBox="0 0 29 28" fill="none" xmlns="http://www.w3.org/2000/svg">
<g id="Brand logo / google">
<path id="vector" d="M26.7512 14.2721C26.7512 13.2649 26.6678 12.5299 26.4873 11.7676H14.7512V16.3137H21.64C21.5012 17.4435 20.7512 19.1448 19.0845 20.2881L19.0612 20.4403L22.7719 23.2575L23.029 23.2826C25.39 21.1457 26.7512 18.0015 26.7512 14.2721Z" fill="#4285F4"/>
<path id="vector_2" d="M14.7505 26.25C18.1255 26.25 20.9587 25.161 23.0283 23.2827L19.0838 20.2882C18.0283 21.0096 16.6116 21.5132 14.7505 21.5132C11.445 21.5132 8.63947 19.3763 7.63938 16.4227L7.49279 16.4349L3.63432 19.3613L3.58386 19.4988C5.63939 23.5004 9.8616 26.25 14.7505 26.25Z" fill="#34A853"/>
<path id="vector_3" d="M7.64005 16.4228C7.37617 15.6606 7.22345 14.8438 7.22345 14C7.22345 13.1561 7.37617 12.3394 7.62617 11.5772L7.61918 11.4149L3.71235 8.44147L3.58452 8.50105C2.73734 10.1616 2.25122 12.0264 2.25122 14C2.25122 15.9736 2.73734 17.8383 3.58452 19.4988L7.64005 16.4228Z" fill="#FBBC05"/>
<path id="vector_4" d="M14.7506 6.48663C17.0978 6.48663 18.6811 7.48024 19.5839 8.31057L23.1117 4.935C20.9451 2.96139 18.1255 1.75 14.7506 1.75C9.86164 1.75 5.6394 4.49942 3.58386 8.50106L7.62552 11.5772C8.6395 8.6236 11.445 6.48663 14.7506 6.48663Z" fill="#EB4335"/>
</g>
</svg>
