<svg width="92" height="34" viewBox="0 0 92 34" fill="none" xmlns="http://www.w3.org/2000/svg">
<path fill-rule="evenodd" clip-rule="evenodd" d="M11.1833 2.40186C5.00625 2.40186 0 7.40811 0 13.5852V22.77C0 28.9471 5.00625 33.9534 11.1833 33.9534H20.2168C26.3939 33.9534 31.4001 28.9471 31.4001 22.77V13.5852C31.4001 7.40811 26.3939 2.40186 20.2168 2.40186H11.1833ZM11.3953 21.2773L16.4621 27.3828H20.0856L14.5813 20.9023L19.8333 14.9378H16.4318L11.3953 20.7992V8.71025H8.5389V27.3828H11.3953V21.2773ZM21.9427 27.0901C22.3061 27.4534 22.7603 27.6351 23.3154 27.6351C23.8706 27.6351 24.3247 27.4534 24.6679 27.0901C25.0313 26.7065 25.213 26.2725 25.213 25.7174C25.213 25.1622 25.0313 24.7081 24.6679 24.3447C24.3147 23.9813 23.8706 23.7997 23.3154 23.7997C22.7603 23.7997 22.3061 23.9813 21.9427 24.3447C21.5996 24.7081 21.428 25.1824 21.428 25.7174C21.428 26.2523 21.5996 26.7065 21.9427 27.0901Z" fill="#1C222B"/>
<path d="M48.0744 28.1096L43.2499 22.0941L48.0542 16.3207H51.1731L45.6521 22.8006L45.7732 21.2563L51.4153 28.1096H48.0845H48.0744ZM40.8174 28.1096V10.4263H43.4315V28.1096H40.8174Z" fill="#1C222B"/>
<path d="M57.4508 28.352C56.3103 28.352 55.2808 28.0896 54.3623 27.5647C53.4539 27.0197 52.7373 26.2829 52.2023 25.3543C51.6775 24.4257 51.415 23.376 51.415 22.2153C51.415 21.0546 51.6775 20.015 52.2023 19.0965C52.7272 18.1679 53.4337 17.4311 54.3219 16.8861C55.2303 16.341 56.2295 16.0786 57.3196 16.0786C58.4097 16.0786 59.3181 16.3309 60.1255 16.8356C60.9532 17.3403 61.589 18.0367 62.0533 18.9249C62.5277 19.8131 62.7699 20.8123 62.7699 21.9428C62.7699 22.1346 62.7498 22.3465 62.7195 22.5585C62.6993 22.7503 62.669 22.9723 62.6286 23.2246H53.252V21.0142H61.2661L60.287 21.9024C60.2567 21.1858 60.1154 20.5802 59.8833 20.0856C59.641 19.5911 59.308 19.2176 58.8639 18.9552C58.4399 18.6928 57.905 18.5616 57.2691 18.5616C56.603 18.5616 56.0277 18.713 55.5331 19.0057C55.0385 19.2984 54.6651 19.7223 54.3925 20.2572C54.12 20.7821 53.9888 21.4079 53.9888 22.1447C53.9888 22.8815 54.1301 23.5274 54.4127 24.0826C54.6953 24.6377 55.0991 25.0717 55.6239 25.3846C56.1488 25.6773 56.7544 25.8287 57.4306 25.8287C58.016 25.8287 58.5611 25.7177 59.0455 25.5057C59.5502 25.2938 59.9842 24.9809 60.3274 24.5771L61.9928 26.3233C61.4376 26.9995 60.7614 27.5042 59.9741 27.8473C59.1767 28.1905 58.339 28.3621 57.4508 28.3621V28.352Z" fill="#1C222B"/>
<path d="M69.9264 28.352C68.7859 28.352 67.7563 28.0896 66.8379 27.5647C65.9295 27.0197 65.2128 26.2829 64.6779 25.3543C64.1531 24.4257 63.8906 23.376 63.8906 22.2153C63.8906 21.0546 64.1531 20.015 64.6779 19.0965C65.2028 18.1679 65.9093 17.4311 66.7975 16.8861C67.7059 16.341 68.7051 16.0786 69.7952 16.0786C70.8853 16.0786 71.7936 16.3309 72.6011 16.8356C73.4288 17.3403 74.0646 18.0367 74.5289 18.9249C75.0033 19.8131 75.2455 20.8123 75.2455 21.9428C75.2455 22.1346 75.2253 22.3465 75.1951 22.5585C75.1749 22.7503 75.1446 22.9723 75.1042 23.2246H65.7276V21.0142H73.7416L72.7626 21.9024C72.7323 21.1858 72.591 20.5802 72.3589 20.0856C72.1166 19.5911 71.7835 19.2176 71.3394 18.9552C70.9155 18.6928 70.3806 18.5616 69.7447 18.5616C69.0786 18.5616 68.5032 18.713 68.0087 19.0057C67.5141 19.2984 67.1407 19.7223 66.8681 20.2572C66.5956 20.7821 66.4644 21.4079 66.4644 22.1447C66.4644 22.8815 66.6057 23.5274 66.8883 24.0826C67.1709 24.6377 67.5747 25.0717 68.0995 25.3846C68.6244 25.6773 69.23 25.8287 69.9062 25.8287C70.4916 25.8287 71.0366 25.7177 71.5211 25.5057C72.0258 25.2938 72.4598 24.9809 72.803 24.5771L74.4684 26.3233C73.9132 26.9995 73.237 27.5042 72.4497 27.8473C71.6523 28.1905 70.8146 28.3621 69.9264 28.3621V28.352Z" fill="#1C222B"/>
<path d="M83.2093 28.352C82.3413 28.352 81.5641 28.1602 80.8777 27.7868C80.1914 27.3932 79.6565 26.8582 79.2628 26.1921C78.8793 25.5158 78.6875 24.7588 78.6875 23.911V20.5196C78.6875 19.6718 78.8894 18.9047 79.283 18.2386C79.6767 17.5623 80.2217 17.0476 80.8979 16.664C81.5843 16.2704 82.3514 16.0786 83.2093 16.0786C84.2388 16.0786 85.1674 16.3612 85.995 16.9164C86.8328 17.4614 87.4888 18.1982 87.9733 19.1268C88.4679 20.0453 88.7101 21.0849 88.7101 22.2456C88.7101 23.4063 88.4679 24.4358 87.9733 25.3644C87.4989 26.2829 86.8429 27.0096 85.995 27.5546C85.1674 28.0997 84.2388 28.3621 83.2093 28.3621V28.352ZM82.7753 25.7984C83.4112 25.7984 83.9663 25.647 84.4407 25.3543C84.9352 25.0414 85.3087 24.6175 85.5812 24.0725C85.8638 23.5274 86.0051 22.9117 86.0051 22.2052C86.0051 21.4987 85.8638 20.883 85.5812 20.338C85.3087 19.7929 84.9352 19.3791 84.4407 19.0864C83.9663 18.7735 83.4112 18.6221 82.7753 18.6221C82.1394 18.6221 81.5742 18.7735 81.0897 19.0864C80.5951 19.3791 80.2217 19.803 79.9492 20.338C79.6766 20.883 79.5454 21.4987 79.5454 22.2052C79.5454 22.9117 79.6766 23.5274 79.9492 24.0725C80.2217 24.6175 80.5951 25.0414 81.0897 25.3543C81.5843 25.647 82.1495 25.7984 82.7753 25.7984ZM77.0928 33.0252V16.3209H79.7069V19.4901L79.2527 22.3667L79.7069 25.213V33.0252H77.0928Z" fill="#1C222B"/>
<path d="M87.9827 0H68.7954C66.5768 0 64.7783 1.79852 64.7783 4.01711V9.24542C64.7783 11.464 66.5768 13.2625 68.7954 13.2625H87.9827C90.2013 13.2625 91.9998 11.464 91.9998 9.24542V4.01711C91.9998 1.79852 90.2013 0 87.9827 0Z" fill="#00A651"/>
<path d="M75.2451 3.07812L72.419 10.8499H70.5315L67.665 3.09831H69.3304L71.4803 9.26529L73.5898 3.08822H75.2451V3.07812Z" fill="white"/>
<path d="M81.7753 4.6626L81.7955 10.8296H80.231V10.0524C80.0292 10.3249 79.7668 10.5268 79.4438 10.6782C79.1208 10.8296 78.7675 10.9103 78.3941 10.9103C77.9096 10.9103 77.4857 10.8094 77.1122 10.6075C76.7388 10.4057 76.4461 10.1029 76.2341 9.70922C76.0222 9.31559 75.9111 8.8412 75.9111 8.29617V4.68278H77.4554V8.07412C77.4554 8.55859 77.5866 8.94214 77.8389 9.20456C78.0812 9.46699 78.4143 9.5982 78.8382 9.5982C79.2722 9.5982 79.6053 9.46699 79.8475 9.20456C80.0897 8.94214 80.2109 8.55859 80.2109 8.07412V4.68278H81.7652L81.7753 4.6626Z" fill="white"/>
<path d="M88.7897 8.19575H84.2881C84.3285 8.64995 84.4799 9.00321 84.7625 9.25554C85.035 9.50787 85.3782 9.62899 85.7718 9.62899C86.3471 9.62899 86.7609 9.37666 87.0032 8.88209H88.6887C88.5172 9.4675 88.174 9.96207 87.6693 10.3456C87.1647 10.7292 86.549 10.9209 85.8122 10.9209C85.2167 10.9209 84.6817 10.7897 84.2174 10.5273C83.7431 10.2649 83.3797 9.89142 83.1173 9.40694C82.8548 8.92246 82.7236 8.36734 82.7236 7.74155C82.7236 7.10568 82.8447 6.54046 83.1072 6.05598C83.3595 5.5715 83.7229 5.19805 84.1972 4.93563C84.6615 4.6732 85.2066 4.54199 85.8122 4.54199C86.3976 4.54199 86.9224 4.66311 87.3867 4.91544C87.851 5.16777 88.2144 5.52104 88.4667 5.98533C88.719 6.44962 88.8502 6.98456 88.8502 7.58006C88.8502 7.80211 88.8401 8.00398 88.8099 8.18566L88.7897 8.19575ZM87.2151 7.15614C87.2151 6.75241 87.0637 6.43952 86.7811 6.19729C86.4985 5.95505 86.1553 5.83393 85.7415 5.84402C85.358 5.84402 85.035 5.96514 84.7726 6.19729C84.5101 6.42943 84.3486 6.75241 84.2881 7.17633H87.2151V7.15614Z" fill="white"/>
</svg>
